<svg width="634" height="458" viewBox="0 0 634 458" fill="none" xmlns="http://www.w3.org/2000/svg">
<g clip-path="url(#clip0_2_145)">
<path d="M633.084 454.488H0.916185C0.673198 454.488 0.440162 454.391 0.268344 454.219C0.0965257 454.047 0 453.814 0 453.571C0 453.328 0.0965257 453.095 0.268344 452.923C0.440162 452.752 0.673198 452.655 0.916185 452.655H633.084C633.327 452.655 633.56 452.752 633.732 452.923C633.903 453.095 634 453.328 634 453.571C634 453.814 633.903 454.047 633.732 454.219C633.56 454.391 633.327 454.488 633.084 454.488Z" fill="#CCCCCC"/>
<path d="M570.512 294.696H198.541C196.962 294.696 195.447 295.324 194.33 296.44C193.213 297.557 192.586 299.072 192.586 300.652C192.586 302.231 193.213 303.746 194.33 304.863C195.447 305.98 196.962 306.607 198.541 306.607H209.077V449.08C209.077 450.66 209.705 452.175 210.822 453.291C211.938 454.408 213.453 455.036 215.033 455.036C216.612 455.036 218.127 454.408 219.244 453.291C220.36 452.175 220.988 450.66 220.988 449.08L221.078 306.607H547.15V449.08C547.15 450.66 547.777 452.175 548.894 453.291C550.011 454.408 551.525 455.036 553.105 455.036C554.684 455.036 556.199 454.408 557.316 453.291C558.433 452.175 559.06 450.66 559.06 449.08V309.747L560.793 306.607H570.512C572.092 306.607 573.606 305.98 574.723 304.863C575.84 303.746 576.468 302.231 576.468 300.652C576.468 299.072 575.84 297.557 574.723 296.44C573.606 295.324 572.092 294.696 570.512 294.696Z" fill="#CCCCCC"/>
<path d="M404.765 297.813H292.091C289.909 297.81 287.818 296.943 286.275 295.4C284.732 293.857 283.864 291.765 283.862 289.584V227.547C283.864 225.365 284.732 223.273 286.275 221.73C287.818 220.188 289.909 219.32 292.091 219.317H404.765C406.947 219.32 409.038 220.188 410.581 221.73C412.124 223.273 412.992 225.365 412.994 227.547V289.584C412.992 291.765 412.124 293.857 410.581 295.4C409.038 296.943 406.947 297.81 404.765 297.813Z" fill="#3F3D56"/>
<path d="M404.764 225.651H292.092C291.589 225.652 291.107 225.852 290.752 226.208C290.396 226.563 290.196 227.045 290.195 227.548V289.585C290.196 290.088 290.396 290.57 290.752 290.925C291.107 291.28 291.589 291.481 292.092 291.482H404.764C405.267 291.481 405.749 291.28 406.104 290.925C406.46 290.57 406.66 290.088 406.661 289.585V227.548C406.66 227.045 406.46 226.563 406.104 226.208C405.749 225.852 405.267 225.652 404.764 225.651Z" fill="white"/>
<path d="M358.038 269.573C358.038 269.573 344.549 266.465 337.131 272.163C329.712 277.862 346.573 290.813 346.573 290.813L358.038 269.573Z" fill="#2F2E41"/>
<path d="M349.089 263.7C356.115 263.7 361.812 258.004 361.812 250.976C361.812 243.949 356.115 238.253 349.089 238.253C342.062 238.253 336.366 243.949 336.366 250.976C336.366 258.004 342.062 263.7 349.089 263.7Z" fill="#A0616A"/>
<path d="M339.25 233.115C340.099 231.675 341.328 230.498 342.804 229.713C344.28 228.928 345.943 228.565 347.612 228.666C349.357 228.885 351.06 229.362 352.665 230.081L360.982 233.326C363.135 234.165 365.492 235.194 366.426 237.307C367.292 239.268 366.646 241.533 365.991 243.575L362.879 253.281C362.535 251.084 361.943 248.933 361.116 246.869C360.275 244.791 358.756 243.059 356.806 241.955C354.645 240.846 352.099 240.869 349.673 240.986C346.239 241.151 342.504 241.588 340.063 244.011C338.768 245.387 337.889 247.103 337.53 248.958C337.177 250.804 336.999 252.679 336.999 254.558C335.591 252.136 334.404 249.593 333.454 246.957C332.673 244.995 332.228 242.915 332.137 240.805C332.055 238.677 332.762 236.593 334.12 234.953C334.81 234.152 335.71 233.559 336.718 233.241C337.727 232.924 338.804 232.895 339.829 233.156L339.25 233.115Z" fill="#2F2E41"/>
<path d="M379.468 280.606C379.349 280.176 379.105 279.792 378.768 279.5C378.43 279.208 378.014 279.022 377.572 278.966C377.543 278.946 377.512 278.927 377.48 278.911L358.486 268.266C357.944 267.962 357.305 267.879 356.703 268.034C356.101 268.189 355.582 268.57 355.254 269.098L350.059 277.509L342.235 269.685L342.11 269.56C341.709 269.159 341.179 268.912 340.613 268.862C340.047 268.813 339.482 268.964 339.017 269.29L323.407 280.221C323.38 280.221 323.352 280.231 323.325 280.231C322.578 280.355 321.895 280.731 321.391 281.295C320.886 281.86 320.589 282.58 320.548 283.337L320.145 291.482H382.483L379.468 280.606Z" fill="#6C63FF"/>
<path d="M414.26 290.217H402.233C402.233 289.881 402.1 289.559 401.862 289.321C401.625 289.084 401.303 288.951 400.967 288.951H397.169C396.833 288.951 396.511 289.084 396.274 289.321C396.036 289.559 395.903 289.881 395.903 290.217H392.105C392.105 289.881 391.972 289.559 391.734 289.321C391.497 289.084 391.175 288.951 390.839 288.951H387.041C386.705 288.951 386.383 289.084 386.146 289.321C385.908 289.559 385.775 289.881 385.775 290.217H381.977C381.977 289.881 381.844 289.559 381.606 289.321C381.369 289.084 381.047 288.951 380.711 288.951H376.913C376.577 288.951 376.255 289.084 376.018 289.321C375.78 289.559 375.647 289.881 375.647 290.217H371.849C371.849 289.881 371.716 289.559 371.478 289.321C371.241 289.084 370.919 288.951 370.583 288.951H366.785C366.449 288.951 366.127 289.084 365.89 289.321C365.652 289.559 365.519 289.881 365.519 290.217H361.721C361.721 289.881 361.588 289.559 361.35 289.321C361.113 289.084 360.791 288.951 360.455 288.951H356.657C356.321 288.951 355.999 289.084 355.762 289.321C355.524 289.559 355.391 289.881 355.391 290.217H351.593C351.593 289.881 351.46 289.559 351.222 289.321C350.985 289.084 350.663 288.951 350.327 288.951H346.529C346.193 288.951 345.871 289.084 345.634 289.321C345.396 289.559 345.263 289.881 345.263 290.217H341.465C341.465 289.881 341.332 289.559 341.094 289.321C340.857 289.084 340.535 288.951 340.199 288.951H336.401C336.065 288.951 335.743 289.084 335.506 289.321C335.268 289.559 335.135 289.881 335.135 290.217H331.337C331.337 289.881 331.204 289.559 330.966 289.321C330.729 289.084 330.407 288.951 330.071 288.951H326.273C325.937 288.951 325.615 289.084 325.378 289.321C325.14 289.559 325.007 289.881 325.007 290.217H321.209C321.209 289.881 321.076 289.559 320.838 289.321C320.601 289.084 320.279 288.951 319.943 288.951H316.145C315.809 288.951 315.487 289.084 315.25 289.321C315.012 289.559 314.879 289.881 314.879 290.217H311.081C311.081 289.881 310.948 289.559 310.71 289.321C310.473 289.084 310.151 288.951 309.815 288.951H306.017C305.681 288.951 305.359 289.084 305.122 289.321C304.884 289.559 304.751 289.881 304.751 290.217H300.953C300.953 289.881 300.82 289.559 300.582 289.321C300.345 289.084 300.023 288.951 299.687 288.951H295.889C295.553 288.951 295.231 289.084 294.994 289.321C294.756 289.559 294.623 289.881 294.623 290.217H282.596C281.59 290.218 280.625 290.619 279.914 291.331C279.203 292.043 278.804 293.008 278.804 294.015C278.804 295.021 279.203 295.986 279.914 296.698C280.625 297.411 281.59 297.811 282.596 297.813H414.26C415.267 297.813 416.233 297.413 416.946 296.7C417.658 295.988 418.058 295.022 418.058 294.015C418.058 293.007 417.658 292.041 416.946 291.329C416.233 290.617 415.267 290.217 414.26 290.217Z" fill="#3F3D56"/>
<path d="M263.018 268.159V293.379H199.835C198.143 293.438 196.455 293.156 194.874 292.548C193.293 291.941 191.85 291.022 190.632 289.845C189.413 288.668 188.444 287.258 187.782 285.699C187.121 284.14 186.78 282.463 186.78 280.769C186.78 279.075 187.121 277.399 187.782 275.84C188.444 274.28 189.413 272.87 190.632 271.694C191.85 270.517 193.293 269.597 194.874 268.99C196.455 268.383 198.143 268.101 199.835 268.159H263.018Z" fill="#F2F2F2"/>
<path d="M264.569 293.185C264.569 293.442 264.467 293.689 264.285 293.871C264.103 294.053 263.857 294.155 263.599 294.155H198.71C195.186 294.155 191.806 292.755 189.314 290.263C186.822 287.771 185.422 284.391 185.422 280.866C185.422 277.342 186.822 273.962 189.314 271.47C191.806 268.978 195.186 267.577 198.71 267.577H263.599C263.857 267.577 264.103 267.68 264.285 267.862C264.467 268.043 264.569 268.29 264.569 268.547C264.569 268.805 264.467 269.051 264.285 269.233C264.103 269.415 263.857 269.517 263.599 269.517H198.71C195.702 269.52 192.818 270.717 190.692 272.845C188.566 274.973 187.372 277.858 187.372 280.866C187.372 283.874 188.566 286.76 190.692 288.888C192.818 291.016 195.702 292.213 198.71 292.215H263.599C263.857 292.215 264.103 292.318 264.285 292.499C264.467 292.681 264.569 292.928 264.569 293.185Z" fill="#6C63FF"/>
<path d="M263.017 273.979H195.121C195.096 273.98 195.07 273.975 195.046 273.965C195.023 273.955 195.001 273.941 194.983 273.923C194.965 273.905 194.951 273.884 194.941 273.86C194.931 273.836 194.926 273.811 194.926 273.785C194.926 273.76 194.931 273.734 194.941 273.711C194.951 273.687 194.965 273.666 194.983 273.648C195.001 273.63 195.023 273.615 195.046 273.606C195.07 273.596 195.096 273.591 195.121 273.591H263.017C263.069 273.592 263.118 273.612 263.154 273.649C263.19 273.685 263.21 273.734 263.21 273.785C263.21 273.837 263.19 273.886 263.154 273.922C263.118 273.958 263.069 273.979 263.017 273.979Z" fill="#CCCCCC"/>
<path d="M263.017 278.635H195.121C195.096 278.636 195.07 278.631 195.046 278.621C195.023 278.611 195.001 278.597 194.983 278.579C194.965 278.561 194.951 278.54 194.941 278.516C194.931 278.492 194.926 278.467 194.926 278.441C194.926 278.416 194.931 278.39 194.941 278.367C194.951 278.343 194.965 278.322 194.983 278.304C195.001 278.286 195.023 278.271 195.046 278.262C195.07 278.252 195.096 278.247 195.121 278.247H263.017C263.069 278.248 263.118 278.268 263.154 278.305C263.19 278.341 263.21 278.39 263.21 278.441C263.21 278.493 263.19 278.542 263.154 278.578C263.118 278.614 263.069 278.635 263.017 278.635Z" fill="#CCCCCC"/>
<path d="M263.017 283.291H195.121C195.096 283.291 195.07 283.287 195.046 283.277C195.023 283.267 195.001 283.253 194.983 283.235C194.965 283.217 194.951 283.195 194.941 283.172C194.931 283.148 194.926 283.123 194.926 283.097C194.926 283.072 194.931 283.046 194.941 283.023C194.951 282.999 194.965 282.978 194.983 282.96C195.001 282.942 195.023 282.927 195.046 282.918C195.07 282.908 195.096 282.903 195.121 282.903H263.017C263.069 282.904 263.118 282.924 263.154 282.961C263.19 282.997 263.21 283.046 263.21 283.097C263.21 283.149 263.19 283.198 263.154 283.234C263.118 283.27 263.069 283.291 263.017 283.291Z" fill="#CCCCCC"/>
<path d="M263.017 287.947H195.121C195.096 287.947 195.07 287.942 195.046 287.933C195.023 287.923 195.001 287.909 194.983 287.891C194.965 287.873 194.951 287.851 194.941 287.828C194.931 287.804 194.926 287.779 194.926 287.753C194.926 287.728 194.931 287.702 194.941 287.679C194.951 287.655 194.965 287.634 194.983 287.616C195.001 287.598 195.023 287.583 195.046 287.574C195.07 287.564 195.096 287.559 195.121 287.559H263.017C263.069 287.56 263.118 287.58 263.154 287.617C263.19 287.653 263.21 287.702 263.21 287.753C263.21 287.804 263.19 287.854 263.154 287.89C263.118 287.926 263.069 287.947 263.017 287.947Z" fill="#CCCCCC"/>
<path d="M251.107 241.589V266.809H187.925C186.232 266.868 184.545 266.585 182.964 265.978C181.382 265.371 179.939 264.451 178.721 263.275C177.503 262.098 176.534 260.688 175.872 259.128C175.21 257.569 174.869 255.893 174.869 254.199C174.869 252.505 175.21 250.828 175.872 249.269C176.534 247.71 177.503 246.3 178.721 245.123C179.939 243.946 181.382 243.027 182.964 242.42C184.545 241.813 186.232 241.53 187.925 241.589H251.107Z" fill="#F2F2F2"/>
<path d="M252.659 266.615C252.659 266.872 252.557 267.119 252.375 267.3C252.193 267.482 251.946 267.585 251.689 267.585H186.8C185.055 267.585 183.327 267.241 181.714 266.573C180.102 265.905 178.637 264.926 177.403 263.692C176.169 262.458 175.191 260.993 174.523 259.381C173.855 257.769 173.511 256.041 173.511 254.296C173.511 252.551 173.855 250.823 174.523 249.21C175.191 247.598 176.169 246.133 177.403 244.899C178.637 243.665 180.102 242.686 181.714 242.018C183.327 241.351 185.055 241.007 186.8 241.007H251.689C251.946 241.007 252.193 241.109 252.375 241.291C252.557 241.473 252.659 241.72 252.659 241.977C252.659 242.234 252.557 242.481 252.375 242.663C252.193 242.845 251.946 242.947 251.689 242.947H186.8C183.792 242.95 180.908 244.146 178.782 246.274C176.656 248.403 175.461 251.288 175.461 254.296C175.461 257.304 176.656 260.189 178.782 262.317C180.908 264.445 183.792 265.642 186.8 265.645H251.689C251.946 265.645 252.193 265.747 252.375 265.929C252.557 266.111 252.659 266.357 252.659 266.615Z" fill="#3F3D56"/>
<path d="M251.107 247.409H183.211C183.185 247.409 183.16 247.404 183.136 247.394C183.112 247.385 183.091 247.37 183.073 247.352C183.055 247.334 183.04 247.313 183.03 247.289C183.02 247.266 183.015 247.24 183.015 247.215C183.015 247.189 183.02 247.164 183.03 247.14C183.04 247.117 183.055 247.095 183.073 247.077C183.091 247.059 183.112 247.045 183.136 247.035C183.16 247.026 183.185 247.021 183.211 247.021H251.107C251.158 247.021 251.207 247.042 251.243 247.078C251.279 247.114 251.3 247.164 251.3 247.215C251.3 247.266 251.279 247.315 251.243 247.352C251.207 247.388 251.158 247.408 251.107 247.409Z" fill="#CCCCCC"/>
<path d="M251.107 252.065H183.211C183.185 252.065 183.16 252.06 183.136 252.05C183.112 252.041 183.091 252.027 183.073 252.008C183.055 251.99 183.04 251.969 183.03 251.945C183.02 251.922 183.015 251.896 183.015 251.871C183.015 251.845 183.02 251.82 183.03 251.796C183.04 251.773 183.055 251.751 183.073 251.733C183.091 251.715 183.112 251.701 183.136 251.691C183.16 251.682 183.185 251.677 183.211 251.677H251.107C251.158 251.677 251.207 251.698 251.243 251.734C251.279 251.77 251.3 251.82 251.3 251.871C251.3 251.922 251.279 251.971 251.243 252.008C251.207 252.044 251.158 252.064 251.107 252.065Z" fill="#CCCCCC"/>
<path d="M251.107 256.721H183.211C183.185 256.721 183.16 256.716 183.136 256.706C183.112 256.697 183.091 256.682 183.073 256.664C183.055 256.646 183.04 256.625 183.03 256.601C183.02 256.578 183.015 256.552 183.015 256.527C183.015 256.501 183.02 256.476 183.03 256.452C183.04 256.429 183.055 256.407 183.073 256.389C183.091 256.371 183.112 256.357 183.136 256.347C183.16 256.337 183.185 256.333 183.211 256.333H251.107C251.158 256.333 251.207 256.354 251.243 256.39C251.279 256.426 251.3 256.476 251.3 256.527C251.3 256.578 251.279 256.627 251.243 256.663C251.207 256.7 251.158 256.72 251.107 256.721Z" fill="#CCCCCC"/>
<path d="M251.107 261.377H183.211C183.185 261.377 183.16 261.372 183.136 261.362C183.112 261.353 183.091 261.338 183.073 261.32C183.055 261.302 183.04 261.281 183.03 261.257C183.02 261.234 183.015 261.208 183.015 261.183C183.015 261.157 183.02 261.132 183.03 261.108C183.04 261.085 183.055 261.063 183.073 261.045C183.091 261.027 183.112 261.013 183.136 261.003C183.16 260.993 183.185 260.989 183.211 260.989H251.107C251.158 260.989 251.207 261.01 251.243 261.046C251.279 261.082 251.3 261.131 251.3 261.183C251.3 261.234 251.279 261.283 251.243 261.319C251.207 261.356 251.158 261.376 251.107 261.377Z" fill="#CCCCCC"/>
<path d="M324.607 383.022V361.032C324.607 360.06 324.221 359.128 323.534 358.441C322.847 357.754 321.914 357.368 320.942 357.368H237.57C236.598 357.368 235.666 357.754 234.978 358.441C234.291 359.128 233.905 360.06 233.905 361.032V383.022H324.607Z" fill="#CCCCCC"/>
<path d="M324.607 391.268H233.905V419.671H324.607V391.268Z" fill="#CCCCCC"/>
<path d="M233.905 427.917V449.906C233.905 450.878 234.291 451.811 234.978 452.498C235.666 453.185 236.598 453.571 237.57 453.571H320.942C321.914 453.571 322.847 453.185 323.534 452.498C324.221 451.811 324.607 450.878 324.607 449.906V427.917H233.905Z" fill="#CCCCCC"/>
<path d="M278.798 373.86C280.316 373.86 281.547 372.629 281.547 371.111C281.547 369.593 280.316 368.362 278.798 368.362C277.28 368.362 276.049 369.593 276.049 371.111C276.049 372.629 277.28 373.86 278.798 373.86Z" fill="white"/>
<path d="M278.798 410.509C280.316 410.509 281.547 409.278 281.547 407.76C281.547 406.242 280.316 405.011 278.798 405.011C277.28 405.011 276.049 406.242 276.049 407.76C276.049 409.278 277.28 410.509 278.798 410.509Z" fill="white"/>
<path d="M278.945 446.382C280.463 446.382 281.694 445.151 281.694 443.633C281.694 442.115 280.463 440.884 278.945 440.884C277.427 440.884 276.197 442.115 276.197 443.633C276.197 445.151 277.427 446.382 278.945 446.382Z" fill="white"/>
<path d="M314.324 332.295V357.515H251.142C249.449 357.574 247.762 357.291 246.18 356.684C244.599 356.077 243.156 355.158 241.938 353.981C240.72 352.804 239.751 351.394 239.089 349.835C238.427 348.276 238.086 346.599 238.086 344.905C238.086 343.211 238.427 341.535 239.089 339.975C239.751 338.416 240.72 337.006 241.938 335.829C243.156 334.653 244.599 333.733 246.18 333.126C247.762 332.519 249.449 332.236 251.142 332.295H314.324Z" fill="#F2F2F2"/>
<path d="M315.876 357.321C315.876 357.578 315.774 357.825 315.592 358.007C315.41 358.189 315.163 358.291 314.906 358.291H250.016C248.27 358.292 246.541 357.95 244.928 357.283C243.314 356.615 241.848 355.637 240.613 354.403C239.378 353.169 238.398 351.703 237.73 350.09C237.061 348.477 236.717 346.748 236.717 345.002C236.717 343.256 237.061 341.527 237.73 339.914C238.398 338.301 239.378 336.836 240.613 335.602C241.848 334.367 243.314 333.389 244.928 332.722C246.541 332.054 248.27 331.712 250.016 331.713H314.906C315.163 331.713 315.41 331.815 315.592 331.997C315.774 332.179 315.876 332.426 315.876 332.683C315.876 332.94 315.774 333.187 315.592 333.369C315.41 333.551 315.163 333.653 314.906 333.653H250.016C247.008 333.656 244.124 334.853 241.998 336.981C239.872 339.109 238.678 341.994 238.678 345.002C238.678 348.01 239.872 350.895 241.998 353.023C244.124 355.151 247.008 356.348 250.016 356.351H314.906C315.163 356.351 315.41 356.453 315.592 356.635C315.773 356.817 315.876 357.064 315.876 357.321Z" fill="#3F3D56"/>
<path d="M314.324 338.115H246.428C246.402 338.115 246.377 338.11 246.353 338.101C246.329 338.091 246.308 338.077 246.289 338.059C246.271 338.041 246.257 338.019 246.247 337.996C246.237 337.972 246.232 337.947 246.232 337.921C246.232 337.896 246.237 337.87 246.247 337.847C246.257 337.823 246.271 337.802 246.289 337.784C246.308 337.766 246.329 337.751 246.353 337.742C246.377 337.732 246.402 337.727 246.428 337.727H314.324C314.375 337.728 314.424 337.748 314.46 337.784C314.496 337.821 314.517 337.87 314.517 337.921C314.517 337.972 314.496 338.022 314.46 338.058C314.424 338.094 314.375 338.115 314.324 338.115Z" fill="#CCCCCC"/>
<path d="M314.324 342.771H246.428C246.402 342.771 246.377 342.766 246.353 342.757C246.329 342.747 246.308 342.733 246.289 342.715C246.271 342.697 246.257 342.675 246.247 342.652C246.237 342.628 246.232 342.603 246.232 342.577C246.232 342.552 246.237 342.526 246.247 342.503C246.257 342.479 246.271 342.458 246.289 342.439C246.308 342.421 246.329 342.407 246.353 342.398C246.377 342.388 246.402 342.383 246.428 342.383H314.324C314.375 342.384 314.424 342.404 314.46 342.44C314.496 342.477 314.517 342.526 314.517 342.577C314.517 342.628 314.496 342.678 314.46 342.714C314.424 342.75 314.375 342.771 314.324 342.771Z" fill="#CCCCCC"/>
<path d="M314.324 347.427H246.428C246.402 347.427 246.377 347.422 246.353 347.413C246.329 347.403 246.308 347.389 246.289 347.371C246.271 347.353 246.257 347.331 246.247 347.308C246.237 347.284 246.232 347.259 246.232 347.233C246.232 347.208 246.237 347.182 246.247 347.159C246.257 347.135 246.271 347.113 246.289 347.095C246.308 347.077 246.329 347.063 246.353 347.054C246.377 347.044 246.402 347.039 246.428 347.039H314.324C314.375 347.039 314.424 347.06 314.46 347.096C314.496 347.133 314.517 347.182 314.517 347.233C314.517 347.284 314.496 347.334 314.46 347.37C314.424 347.406 314.375 347.427 314.324 347.427Z" fill="#CCCCCC"/>
<path d="M314.324 352.083H246.428C246.402 352.083 246.377 352.078 246.353 352.069C246.329 352.059 246.308 352.045 246.289 352.027C246.271 352.009 246.257 351.987 246.247 351.964C246.237 351.94 246.232 351.915 246.232 351.889C246.232 351.863 246.237 351.838 246.247 351.815C246.257 351.791 246.271 351.769 246.289 351.751C246.308 351.733 246.329 351.719 246.353 351.709C246.377 351.7 246.402 351.695 246.428 351.695H314.324C314.375 351.695 314.424 351.716 314.46 351.752C314.496 351.789 314.517 351.838 314.517 351.889C314.517 351.94 314.496 351.989 314.46 352.026C314.424 352.062 314.375 352.083 314.324 352.083Z" fill="#CCCCCC"/>
<path d="M229.147 167.689V6.89134C229.149 5.06428 229.876 3.31265 231.168 2.02073C232.46 0.728803 234.211 0.00207822 236.038 0H363.139C364.966 0.00209032 366.718 0.728819 368.01 2.02074C369.302 3.31266 370.028 5.06428 370.03 6.89134V167.689C370.028 169.516 369.302 171.268 368.01 172.56C366.718 173.852 364.966 174.578 363.139 174.58H236.038C234.211 174.578 232.46 173.852 231.168 172.56C229.876 171.268 229.149 169.516 229.147 167.689ZM236.038 1.53141C234.617 1.533 233.255 2.09822 232.25 3.10306C231.245 4.10789 230.68 5.47029 230.679 6.89134V167.689C230.68 169.11 231.245 170.472 232.25 171.477C233.255 172.482 234.617 173.047 236.038 173.049H363.139C364.56 173.047 365.923 172.482 366.927 171.477C367.932 170.472 368.497 169.11 368.499 167.689V6.89134C368.497 5.47029 367.932 4.10789 366.927 3.10306C365.923 2.09822 364.56 1.533 363.139 1.53141H236.038Z" fill="#E6E6E6"/>
<path d="M306.716 73.8457V40.8289C306.717 39.9153 307.081 39.0395 307.727 38.3935C308.372 37.7476 309.248 37.3842 310.162 37.3832H338.139C339.053 37.3842 339.929 37.7476 340.575 38.3935C341.22 39.0395 341.584 39.9153 341.585 40.8289V73.8457C341.584 74.7592 341.22 75.635 340.575 76.281C339.929 76.927 339.053 77.2903 338.139 77.2914H310.162C309.248 77.2903 308.372 76.927 307.727 76.281C307.081 75.635 306.717 74.7592 306.716 73.8457Z" fill="#6C63FF"/>
<path d="M252.354 89.1598V56.143C252.355 55.2295 252.718 54.3537 253.364 53.7077C254.01 53.0617 254.886 52.6984 255.799 52.6974H283.777C284.69 52.6984 285.566 53.0617 286.212 53.7077C286.858 54.3537 287.221 55.2295 287.222 56.143V89.1599C287.221 90.0734 286.858 90.9492 286.212 91.5952C285.566 92.2412 284.69 92.6045 283.777 92.6055H255.799C254.886 92.6045 254.01 92.2412 253.364 91.5952C252.718 90.9492 252.355 90.0734 252.354 89.1598Z" fill="#CCCCCC"/>
<path d="M295.997 135.868V102.851C295.998 101.937 296.361 101.061 297.007 100.415C297.653 99.7695 298.529 99.4062 299.442 99.4052H327.42C328.333 99.4062 329.209 99.7695 329.855 100.415C330.501 101.061 330.864 101.937 330.865 102.851V135.868C330.864 136.781 330.501 137.657 329.855 138.303C329.209 138.949 328.333 139.312 327.42 139.313H299.442C298.529 139.312 297.653 138.949 297.007 138.303C296.361 137.657 295.998 136.781 295.997 135.868Z" fill="#FF6584"/>
<path d="M463.189 286.818H434.403C434.13 286.818 433.86 286.881 433.615 287.001L426.349 290.639C426.11 290.74 425.906 290.91 425.763 291.127C425.62 291.344 425.543 291.598 425.543 291.857C425.543 292.117 425.62 292.371 425.763 292.588C425.906 292.805 426.11 292.974 426.349 293.076L433.615 296.713C433.86 296.834 434.13 296.897 434.403 296.897H463.189C463.586 296.92 463.976 296.785 464.274 296.523C464.572 296.261 464.755 295.891 464.784 295.495V288.22C464.756 287.824 464.572 287.454 464.274 287.192C463.976 286.929 463.586 286.795 463.189 286.818Z" fill="#3F3D56"/>
<path d="M464.784 288.22V295.495C464.755 295.891 464.572 296.261 464.274 296.523C463.976 296.785 463.586 296.92 463.189 296.897H457.454V286.818H463.189C463.586 286.795 463.976 286.929 464.274 287.192C464.572 287.454 464.756 287.824 464.784 288.22Z" fill="#6C63FF"/>
<path d="M462.973 232.394C464.276 231.831 465.685 231.551 467.104 231.57C468.524 231.589 469.924 231.909 471.212 232.507C472.5 233.105 473.648 233.968 474.579 235.041C475.51 236.113 476.204 237.37 476.615 238.73C476.743 239.16 476.841 239.6 476.908 240.044L517.164 260.007L526.48 253.833L538.071 267.178L523.847 278.732C522.136 280.11 520.026 280.901 517.831 280.985C515.636 281.07 513.472 280.444 511.66 279.202L470.817 250.956C470.513 251.085 470.203 251.198 469.887 251.295C468.528 251.706 467.097 251.826 465.688 251.645C464.28 251.465 462.925 250.989 461.713 250.248C460.501 249.508 459.459 248.519 458.656 247.348C457.853 246.177 457.306 244.849 457.051 243.452C456.976 243.046 456.926 242.636 456.902 242.224C456.789 240.162 457.31 238.114 458.395 236.357C459.481 234.599 461.078 233.217 462.973 232.394Z" fill="#FFB8B8"/>
<path d="M546.817 355.305H502.831C502.831 356.569 457.498 357.595 457.498 357.595C456.787 358.131 456.138 358.746 455.565 359.428C453.843 361.481 452.902 364.077 452.908 366.758V368.59C452.909 371.627 454.116 374.54 456.263 376.687C458.411 378.835 461.323 380.042 464.36 380.043H546.817C549.853 380.04 552.765 378.833 554.912 376.686C557.059 374.538 558.267 371.627 558.269 368.59V366.758C558.265 363.721 557.057 360.811 554.91 358.664C552.763 356.517 549.853 355.309 546.817 355.305Z" fill="#3F3D56"/>
<path d="M498.97 456.551H510.881V379.588H498.97V456.551Z" fill="#3F3D56"/>
<path d="M465.072 456.132C465.072 457.419 483.12 456.63 505.384 456.63C527.647 456.63 545.696 457.419 545.696 456.132C545.696 454.845 527.647 444.64 505.384 444.64C483.12 444.64 465.072 454.845 465.072 456.132Z" fill="#3F3D56"/>
<path d="M475.823 447.112L464.592 447.111L459.248 417.978L475.825 417.979L475.823 447.112Z" fill="#FFB8B8"/>
<path d="M478.688 458L442.471 457.999V457.541C442.471 455.689 442.835 453.856 443.544 452.146C444.252 450.435 445.291 448.881 446.6 447.572C447.909 446.263 449.463 445.225 451.173 444.516C452.883 443.808 454.717 443.443 456.568 443.443H456.569L478.689 443.444L478.688 458Z" fill="#2F2E41"/>
<path d="M459.024 429.046L436.631 378.83C434.762 374.597 434.555 369.816 436.053 365.438C437.55 361.06 440.641 357.406 444.711 355.205L493.281 329.159L515.445 327.274L535.889 325.416L536.036 325.665C536.225 325.984 540.621 333.577 537.649 341.902C535.396 348.217 529.533 353.15 520.225 356.564C498.498 364.531 473.399 371.34 463.617 373.897C463.185 374.007 462.781 374.208 462.431 374.486C462.082 374.764 461.796 375.113 461.591 375.509C461.386 375.901 461.264 376.331 461.233 376.772C461.202 377.214 461.263 377.657 461.411 378.074L482.215 424.814C482.432 425.407 482.51 426.042 482.443 426.67C482.376 427.298 482.166 427.902 481.829 428.436C481.492 428.969 481.037 429.418 480.498 429.748C479.96 430.078 479.353 430.28 478.725 430.339L463.18 431.471C463.048 431.483 462.917 431.489 462.786 431.489C461.99 431.489 461.211 431.258 460.543 430.824C459.876 430.391 459.348 429.773 459.024 429.046Z" fill="#2F2E41"/>
<path d="M481.321 447.112L470.089 447.111L464.745 417.978L481.322 417.979L481.321 447.112Z" fill="#FFB8B8"/>
<path d="M484.185 458L447.968 457.999V457.541C447.968 455.689 448.333 453.856 449.041 452.146C449.749 450.435 450.788 448.881 452.097 447.572C453.406 446.263 454.96 445.225 456.67 444.516C458.381 443.808 460.214 443.443 462.065 443.443H462.066L484.186 443.444L484.185 458Z" fill="#2F2E41"/>
<path d="M465.437 431.794L443.045 381.578C441.175 377.346 440.969 372.564 442.466 368.186C443.963 363.808 447.054 360.155 451.124 357.954L499.694 331.908L521.858 330.023L542.302 328.164L542.45 328.414C542.638 328.732 547.034 336.325 544.063 344.651C541.809 350.966 535.946 355.899 526.638 359.312C504.911 367.279 479.813 374.088 470.03 376.645C469.598 376.756 469.194 376.957 468.845 377.235C468.496 377.513 468.209 377.861 468.004 378.258C467.799 378.65 467.677 379.08 467.646 379.521C467.615 379.962 467.676 380.405 467.825 380.822L488.628 427.563C488.845 428.156 488.923 428.791 488.857 429.419C488.79 430.046 488.58 430.65 488.242 431.184C487.905 431.718 487.45 432.167 486.912 432.497C486.373 432.827 485.767 433.029 485.138 433.087L469.593 434.219C469.461 434.232 469.33 434.238 469.199 434.238C468.403 434.238 467.624 434.007 466.957 433.573C466.289 433.139 465.761 432.522 465.437 431.794Z" fill="#2F2E41"/>
<path d="M454.276 278.39C444.867 265.873 437.428 251.99 432.219 237.222C431.917 236.339 431.938 235.377 432.279 234.508C432.62 233.639 433.258 232.919 434.08 232.477L466.28 215.223C466.801 214.942 467.379 214.783 467.97 214.759C468.562 214.735 469.151 214.846 469.693 215.084C470.245 215.324 470.735 215.687 471.126 216.145C471.517 216.603 471.798 217.144 471.948 217.727C475.696 231.957 482.741 245.106 492.512 256.108C492.915 256.556 493.209 257.09 493.374 257.669C493.539 258.248 493.57 258.857 493.464 259.449C493.362 260.032 493.128 260.585 492.78 261.064C492.433 261.543 491.98 261.936 491.458 262.214L459.258 279.468C458.434 279.908 457.482 280.04 456.569 279.843C455.657 279.645 454.844 279.131 454.276 278.39Z" fill="#CCCCCC"/>
<path d="M456.473 276.739C456.647 276.955 456.89 277.104 457.161 277.16C457.432 277.216 457.715 277.176 457.96 277.046L490.159 259.791C490.316 259.71 490.451 259.593 490.555 259.451C490.659 259.308 490.728 259.143 490.757 258.97C490.791 258.786 490.781 258.597 490.73 258.418C490.678 258.239 490.586 258.074 490.459 257.936C480.4 246.609 473.147 233.074 469.289 218.424C469.245 218.243 469.159 218.075 469.038 217.932C468.918 217.79 468.766 217.678 468.595 217.604C468.433 217.532 468.258 217.498 468.081 217.505C467.905 217.513 467.732 217.561 467.577 217.646L435.378 234.9C435.134 235.032 434.944 235.244 434.841 235.502C434.737 235.759 434.726 236.044 434.811 236.308C439.927 250.811 447.232 264.446 456.473 276.739Z" fill="white"/>
<path d="M561.248 273.787L536.03 283.371L529.874 266.268C529.056 263.997 529.068 261.51 529.906 259.246C530.745 256.983 532.357 255.089 534.456 253.899C536.581 252.695 539.065 252.291 541.462 252.759C543.858 253.227 546.008 254.536 547.523 256.45L561.248 273.787Z" fill="#6C63FF"/>
<path d="M497.106 341.552C496.575 341.176 496.131 340.692 495.802 340.131C495.472 339.571 495.266 338.946 495.197 338.3C491.967 308.147 494.217 284.55 502.074 266.161C503.458 262.989 505.543 260.173 508.172 257.922C510.8 255.672 513.905 254.047 517.252 253.169L537.637 252.14L537.743 252.191C542.343 254.444 546.094 258.12 548.441 262.673C550.787 267.226 551.604 272.415 550.77 277.469C544.214 294.752 538.724 312.746 542.911 327.262C543.086 327.869 543.137 328.505 543.061 329.132C542.985 329.759 542.783 330.364 542.467 330.912C542.161 331.44 541.75 331.901 541.259 332.265C540.768 332.629 540.208 332.888 539.613 333.027L500.786 342.264C500.157 342.413 499.504 342.427 498.869 342.304C498.235 342.182 497.634 341.925 497.106 341.552Z" fill="#6C63FF"/>
<path d="M530.834 244.526C543.262 244.526 553.336 234.451 553.336 222.023C553.336 209.594 543.262 199.519 530.834 199.519C518.406 199.519 508.332 209.594 508.332 222.023C508.332 234.451 518.406 244.526 530.834 244.526Z" fill="#FFB8B8"/>
<path d="M468.394 239.846L450.856 247.588C450.189 247.881 449.433 247.898 448.754 247.635C448.074 247.372 447.527 246.85 447.232 246.183L446.798 245.201C446.505 244.534 446.488 243.777 446.751 243.098C447.014 242.418 447.536 241.871 448.203 241.576L465.74 233.834C466.407 233.541 467.163 233.524 467.842 233.787C468.522 234.05 469.069 234.573 469.364 235.239L469.798 236.222C470.092 236.889 470.109 237.645 469.845 238.324C469.582 239.004 469.06 239.551 468.394 239.846Z" fill="#CCCCCC"/>
<path d="M474.807 251.757L457.27 259.499C456.603 259.792 455.846 259.809 455.167 259.546C454.487 259.283 453.94 258.761 453.645 258.094L453.211 257.112C452.918 256.445 452.901 255.688 453.164 255.009C453.427 254.329 453.95 253.782 454.616 253.487L472.153 245.745C472.82 245.452 473.576 245.435 474.256 245.698C474.935 245.961 475.483 246.483 475.778 247.15L476.211 248.133C476.505 248.8 476.522 249.556 476.259 250.235C475.995 250.915 475.473 251.462 474.807 251.757Z" fill="#CCCCCC"/>
<path d="M488.331 298.28L449.234 267.435C448.922 267.544 448.605 267.638 448.284 267.715C446.904 268.038 445.472 268.066 444.08 267.799C442.688 267.532 441.368 266.976 440.206 266.165C439.035 265.354 438.052 264.302 437.321 263.08C436.59 261.858 436.128 260.494 435.967 259.08C435.705 256.818 436.214 254.534 437.413 252.598C438.612 250.663 440.43 249.189 442.572 248.416C443.908 247.937 445.331 247.745 446.747 247.854C448.163 247.963 449.54 248.369 450.788 249.047C452.036 249.725 453.126 250.659 453.988 251.788C454.85 252.917 455.464 254.215 455.789 255.597C455.89 256.035 455.96 256.48 455.999 256.928L494.919 279.382L504.605 273.805L515.335 287.853L500.296 298.572C498.536 299.817 496.421 300.46 494.265 300.408C492.11 300.355 490.029 299.609 488.331 298.28Z" fill="#FFB8B8"/>
<path d="M520.105 292.228L497.797 277.057L508.281 262.208C509.673 260.236 511.718 258.82 514.053 258.21C516.388 257.6 518.864 257.835 521.042 258.873C523.246 259.924 525.002 261.728 525.993 263.96C526.983 266.191 527.143 268.704 526.443 271.043L520.105 292.228Z" fill="#6C63FF"/>
<path d="M522.584 218.671C516.8 222.63 509.206 226.699 503.299 222.483C499.42 219.715 498.198 214.59 499.771 210.091C502.6 202.002 510.371 198.441 517.802 195.712C527.463 192.163 537.982 189.34 547.955 191.881C557.928 194.423 566.742 204.079 564.942 214.212C563.494 222.362 555.807 229.142 556.898 237.347C557.997 245.604 567.282 249.95 575.48 251.426C583.678 252.902 592.851 253.376 598.743 259.264C606.258 266.776 604.381 280.203 597.31 288.134C590.238 296.065 579.566 299.661 569.225 302.105C555.524 305.343 540.705 307.045 527.692 301.67C514.68 296.296 504.554 281.83 508.323 268.265C509.915 262.535 513.666 257.693 517.291 252.978C520.916 248.264 524.587 243.334 525.97 237.55C527.122 232.73 526.269 227.134 523.073 223.518C522.492 222.885 522.126 222.085 522.028 221.231C521.93 220.377 522.105 219.514 522.528 218.766L522.584 218.671Z" fill="#2F2E41"/>
<path d="M99.9303 328.008C94.1319 330.046 87.9062 330.556 81.8532 329.49C75.8002 328.424 70.1237 325.816 65.3708 321.919C53.2662 311.759 49.471 295.02 46.383 279.521C43.3384 264.24 40.2939 248.958 37.2493 233.677L56.3716 246.845C70.1232 256.314 84.1846 266.087 93.7062 279.802C103.228 293.518 107.384 312.241 99.7337 327.082" fill="#E6E6E6"/>
<path d="M98.2957 383.511C100.231 369.413 102.221 355.133 100.864 340.884C99.658 328.229 95.7973 315.868 87.9374 305.733C83.7654 300.364 78.6888 295.764 72.9359 292.139C71.4358 291.192 70.0551 293.57 71.5487 294.512C81.5028 300.804 89.2019 310.094 93.5361 321.043C98.323 333.219 99.0918 346.492 98.2668 359.427C97.768 367.249 96.7107 375.02 95.6453 382.78C95.5613 383.131 95.6137 383.501 95.7919 383.815C95.9701 384.129 96.2608 384.363 96.6052 384.471C96.9566 384.566 97.3311 384.518 97.6476 384.338C97.9641 384.159 98.197 383.861 98.2957 383.511Z" fill="#F2F2F2"/>
<path d="M79.6541 358.564C77.1672 362.343 73.7489 365.419 69.7284 367.494C65.7079 369.569 61.2208 370.574 56.6993 370.412C45.0792 369.86 35.3917 361.749 26.6712 354.05L0.877563 331.275L17.9487 330.458C30.2252 329.87 42.8184 329.322 54.5114 333.108C66.2044 336.894 76.9882 346.006 79.1264 358.11" fill="#E6E6E6"/>
<path d="M103.765 391.616C94.4499 375.132 83.6447 356.812 64.3376 350.956C58.9693 349.334 53.3403 348.752 47.7537 349.244C45.993 349.396 46.4326 352.11 48.1902 351.958C57.5545 351.181 66.9008 353.654 74.6555 358.96C82.1177 364.04 87.9279 371.102 92.8456 378.591C95.8578 383.178 98.556 387.96 101.255 392.735C102.117 394.261 104.638 393.159 103.765 391.616Z" fill="#F2F2F2"/>
<path d="M118.692 408.966C118.378 405.329 117.072 401.848 114.916 398.902C112.761 395.955 109.838 393.657 106.467 392.257V382.727H90.4844V392.557C87.279 394.026 84.5205 396.319 82.4899 399.201C80.4594 402.084 79.2295 405.453 78.9256 408.966L75.1674 452.655H122.45L118.692 408.966Z" fill="#F2F2F2"/>
</g>
<defs>
<clipPath id="clip0_2_145">
<rect width="634" height="458" fill="white"/>
</clipPath>
</defs>
</svg>
